<svg width="150" height="53" viewBox="0 0 150 53" fill="none" xmlns="http://www.w3.org/2000/svg">
<circle cx="26.5" cy="26.5" r="21.5" stroke="#001D3D" stroke-width="10"/>
<path d="M88.225 20.85H82.825V35H78.725V20.85H73.3V17.25H88.225V20.85ZM97.6605 35.15C96.3272 35.15 95.1189 34.9 94.0355 34.4C92.9689 33.8833 92.0439 33.2 91.2605 32.35C90.4939 31.4833 89.9022 30.5167 89.4855 29.45C89.0689 28.3667 88.8605 27.25 88.8605 26.1C88.8605 24.9167 89.0772 23.7917 89.5105 22.725C89.9605 21.6583 90.5772 20.7083 91.3605 19.875C92.1605 19.025 93.1022 18.3583 94.1855 17.875C95.2689 17.3917 96.4522 17.15 97.7355 17.15C99.0522 17.15 100.244 17.4083 101.311 17.925C102.394 18.425 103.319 19.1083 104.086 19.975C104.869 20.8417 105.469 21.8167 105.886 22.9C106.302 23.9667 106.511 25.0583 106.511 26.175C106.511 27.3583 106.294 28.4833 105.861 29.55C105.427 30.6167 104.811 31.575 104.011 32.425C103.211 33.2583 102.269 33.925 101.186 34.425C100.119 34.9083 98.9439 35.15 97.6605 35.15ZM93.0355 26.15C93.0355 26.8333 93.1355 27.5 93.3355 28.15C93.5355 28.7833 93.8272 29.35 94.2105 29.85C94.6105 30.35 95.1022 30.75 95.6855 31.05C96.2689 31.35 96.9355 31.5 97.6855 31.5C98.4689 31.5 99.1522 31.35 99.7355 31.05C100.319 30.7333 100.802 30.3167 101.186 29.8C101.569 29.2833 101.852 28.7083 102.036 28.075C102.236 27.425 102.336 26.7667 102.336 26.1C102.336 25.4167 102.236 24.7583 102.036 24.125C101.836 23.4917 101.536 22.925 101.136 22.425C100.736 21.9083 100.244 21.5083 99.6605 21.225C99.0772 20.9417 98.4189 20.8 97.6855 20.8C96.9022 20.8 96.2189 20.95 95.6355 21.25C95.0689 21.55 94.5855 21.9583 94.1855 22.475C93.8022 22.975 93.5105 23.55 93.3105 24.2C93.1272 24.8333 93.0355 25.4833 93.0355 26.15ZM114.715 35V17.25H121.34C123.29 17.25 124.915 17.65 126.215 18.45C127.531 19.2333 128.523 20.3 129.19 21.65C129.856 22.9833 130.19 24.4667 130.19 26.1C130.19 27.9 129.823 29.4667 129.09 30.8C128.356 32.1333 127.323 33.1667 125.99 33.9C124.673 34.6333 123.123 35 121.34 35H114.715ZM126.015 26.1C126.015 25.0667 125.831 24.1583 125.465 23.375C125.098 22.575 124.565 21.9583 123.865 21.525C123.165 21.075 122.323 20.85 121.34 20.85H118.815V31.4H121.34C122.34 31.4 123.181 31.175 123.865 30.725C124.565 30.2583 125.098 29.625 125.465 28.825C125.831 28.0083 126.015 27.1 126.015 26.1ZM140.385 35.15C139.052 35.15 137.843 34.9 136.76 34.4C135.693 33.8833 134.768 33.2 133.985 32.35C133.218 31.4833 132.627 30.5167 132.21 29.45C131.793 28.3667 131.585 27.25 131.585 26.1C131.585 24.9167 131.802 23.7917 132.235 22.725C132.685 21.6583 133.302 20.7083 134.085 19.875C134.885 19.025 135.827 18.3583 136.91 17.875C137.993 17.3917 139.177 17.15 140.46 17.15C141.777 17.15 142.968 17.4083 144.035 17.925C145.118 18.425 146.043 19.1083 146.81 19.975C147.593 20.8417 148.193 21.8167 148.61 22.9C149.027 23.9667 149.235 25.0583 149.235 26.175C149.235 27.3583 149.018 28.4833 148.585 29.55C148.152 30.6167 147.535 31.575 146.735 32.425C145.935 33.2583 144.993 33.925 143.91 34.425C142.843 34.9083 141.668 35.15 140.385 35.15ZM135.76 26.15C135.76 26.8333 135.86 27.5 136.06 28.15C136.26 28.7833 136.552 29.35 136.935 29.85C137.335 30.35 137.827 30.75 138.41 31.05C138.993 31.35 139.66 31.5 140.41 31.5C141.193 31.5 141.877 31.35 142.46 31.05C143.043 30.7333 143.527 30.3167 143.91 29.8C144.293 29.2833 144.577 28.7083 144.76 28.075C144.96 27.425 145.06 26.7667 145.06 26.1C145.06 25.4167 144.96 24.7583 144.76 24.125C144.56 23.4917 144.26 22.925 143.86 22.425C143.46 21.9083 142.968 21.5083 142.385 21.225C141.802 20.9417 141.143 20.8 140.41 20.8C139.627 20.8 138.943 20.95 138.36 21.25C137.793 21.55 137.31 21.9583 136.91 22.475C136.527 22.975 136.235 23.55 136.035 24.2C135.852 24.8333 135.76 25.4833 135.76 26.15Z" fill="#001D3D"/>
</svg>
